<svg xmlns="http://www.w3.org/2000/svg" width="17" height="16.715" viewBox="0 0 17 16.715"><defs>
<style>.dangerIcon{fill:#c25127;}.dangerIcon2{fill:#fff;}</style></defs>
<g transform="translate(-0.34 -0.51)">
<path class="dangerIcon" d="M9.124,17.225H2.03a1.857,1.857,0,0,1-1.272-.753,2.025,2.025,0,0,1-.243-2.058c.125-.3.284-.586.435-.887l4.7-9.261,1.4-2.736A1.765,1.765,0,0,1,8.605.51h.468A1.765,1.765,0,0,1,10.63,1.531l1.4,2.736,4.7,9.253c.151.3.31.586.435.887a2.025,2.025,0,0,1-.243,2.058,1.857,1.857,0,0,1-1.272.753H8.555m4.836-6.944" transform="translate(0 0)"/>
<path class="dangerIcon2" d="M10.883,7.829V10.17a.687.687,0,1,1-1.373.021V5.467a.687.687,0,1,1,1.373,0h0Z" transform="translate(-1.348 -0.187)"/>
<path class="dangerIcon2" d="M11.091,16.606a1,1,0,1,1-1-1h0A1,1,0,0,1,11.091,16.606Z" transform="translate(-1.213 -1.736)"/></g></svg>