<?xml version="1.0" standalone="no"?>
<!DOCTYPE svg PUBLIC "-//W3C//DTD SVG 20010904//EN"
 "http://www.w3.org/TR/2001/REC-SVG-20010904/DTD/svg10.dtd">
 <svg version="1.0" xmlns="http://www.w3.org/2000/svg"
 width="980.000000pt" height="946.000000pt" viewBox="0 0 980.000000 946.000000"
 preserveAspectRatio="xMidYMid meet">
<metadata>
Created by potrace 1.16, written by Peter Selinger 2001-2019
</metadata>
<g transform="translate(0.000000,946.000000) scale(0.100000,-0.100000)"
fill="#000000" stroke="none">
<path d="M435 9431 c-208 -60 -377 -239 -420 -446 -22 -105 -22 -3275 0 -3380
44 -212 215 -390 435 -452 62 -17 145 -18 1710 -18 1540 0 1649 1 1709 18 219
60 392 239 436 452 22 105 22 3275 0 3380 -44 211 -221 395 -431 450 -51 13
-260 15 -1719 14 -1541 0 -1664 -2 -1720 -18z"/>
<path d="M5915 9431 c-208 -60 -377 -239 -420 -446 -22 -105 -22 -3275 0
-3380 44 -212 215 -390 435 -452 62 -17 145 -18 1710 -18 1540 0 1649 1 1709
18 219 60 392 239 436 452 22 105 22 3275 0 3380 -44 211 -221 395 -431 450
-51 13 -260 15 -1719 14 -1541 0 -1664 -2 -1720 -18z"/>
<path d="M445 4292 c-45 -15 -104 -42 -133 -61 -72 -46 -172 -157 -210 -233
-66 -131 -62 -15 -62 -1833 0 -1819 -4 -1698 62 -1833 41 -84 143 -193 227
-242 36 -21 100 -49 141 -62 l75 -23 1645 0 c1784 0 1687 -3 1815 55 166 75
290 227 336 410 21 82 21 3308 0 3390 -55 220 -220 389 -434 446 -43 11 -336
14 -1717 14 l-1665 0 -80 -28z"/>
<path d="M5915 4301 c-208 -60 -377 -239 -420 -446 -22 -105 -22 -3275 0
-3380 44 -212 215 -390 435 -452 62 -17 145 -18 1710 -18 1540 0 1649 1 1709
18 219 60 392 239 436 452 22 105 22 3275 0 3380 -44 211 -221 395 -431 450
-51 13 -260 15 -1719 14 -1541 0 -1664 -2 -1720 -18z"/>
</g>
</svg>
