<svg xmlns="http://www.w3.org/2000/svg" width="20.08" height="20.08" viewBox="0 0 20.08 20.08">
    <defs>
        <style>.errorIcon-z{fill:#c25127;}.errorIcon-d{fill:#fff;}</style>
    </defs>
    <g transform="translate(-0.46 -0.46)">
        <circle class="errorIcon-z" cx="10.04" cy="10.04" r="10.04" transform="translate(0.46 0.46)" />
        <path class="errorIcon-d" d="M15.86,14.73l-4.23-4.3,4.22-4.15a.84.84,0,0,0-1.17-1.2L10.5,9.19,6.32,5.08a.84.84,0,0,0-1.17,1.2l4.22,4.15-4.23,4.3a.84.84,0,0,0,0,1.19.82.82,0,0,0,.58.24.86.86,0,0,0,.6-.25l4.17-4.25,4.17,4.25a.87.87,0,0,0,.6.25.82.82,0,0,0,.58-.24.84.84,0,0,0,.02-1.19Z" />
    </g>
</svg>