<svg xmlns="http://www.w3.org/2000/svg" width="20.08" height="20.08" viewBox="0 0 20.08 20.08"><defs><style>.a{fill:#e6bd59;}.b{fill:#fff;}</style></defs><g transform="translate(-0.46 -0.46)"><circle class="a" cx="10.04" cy="10.04" r="10.04" transform="translate(0.46 0.46)"/><path class="b" d="M4.09,11.24a.53.53,0,0,1-.53-.53,7,7,0,0,1,13-3.64.52.52,0,0,1-.17.73.53.53,0,0,1-.73-.18,5.9,5.9,0,0,0-5.09-2.87,6,6,0,0,0-6,6,.53.53,0,0,1-.48.49Z"/><path class="b" d="M16.45,8.5h-.13L13.5,7.77a.54.54,0,0,1-.38-.65.53.53,0,0,1,.64-.38l2.31.59.58-2.26a.53.53,0,0,1,1,.26L17,8.11a.57.57,0,0,1-.25.32A.5.5,0,0,1,16.45,8.5Z"/><path class="b" d="M10.42,17.3a7,7,0,0,1-6-3.37.52.52,0,0,1,.17-.73.53.53,0,0,1,.73.18,5.9,5.9,0,0,0,5.09,2.87,6,6,0,0,0,6-6,.53.53,0,1,1,1.06,0,7,7,0,0,1-7.05,7.05Z"/><path class="b" d="M3.84,16.32H3.71a.53.53,0,0,1-.38-.64L4,12.89a.57.57,0,0,1,.25-.32.55.55,0,0,1,.4-.06l2.82.72a.53.53,0,0,1,.38.64.55.55,0,0,1-.64.39L4.9,13.67l-.58,2.26A.52.52,0,0,1,3.84,16.32Z"/></g></svg>