<svg xmlns="http://www.w3.org/2000/svg" width="27.08" height="20.08" viewBox="0 0 27.08 20.08"><defs><style>.a{fill:#c25127;}.b{fill:#88b861;}.c{fill:#fff;}</style></defs><g transform="translate(-0.46 -0.46)"><path class="a" d="M25.18,7.76v4.9A1.09,1.09,0,1,1,23,12.65V4.07a1.07,1.07,0,1,1,2.14,0h0Z" transform="translate(2)"/><path class="a" d="M25.54,16.58a1.43,1.43,0,1,1-1.43-1.43h0a1.43,1.43,0,0,1,1.43,1.43Z" transform="translate(2)"/><circle class="b" cx="10.04" cy="10.04" r="10.04" transform="translate(0.46 0.46)"/><path class="c" d="M8.92,17a.9.9,0,0,1-.64-.26L4.53,13.05a.91.91,0,1,1,1.27-1.3l3,2.92,6.29-9.26a.91.91,0,1,1,1.49,1L9.66,16.59A.87.87,0,0,1,9,17Z"/></g></svg>