<svg xmlns="http://www.w3.org/2000/svg" viewBox="0 0 21 21"><defs><style>.cls-1{fill:#fff;}.cls-2{fill:#c25127;}</style></defs><g id="Livello_1" data-name="Livello 1"><path class="cls-1" d="M18.33,15.28a6.14,6.14,0,0,1-2.11-4.63V8.57a3.75,3.75,0,0,1-.47,0,4.31,4.31,0,0,1-4.31-4.31A4.19,4.19,0,0,1,12.1,2a6.48,6.48,0,0,0-2.21-.43A6.41,6.41,0,0,0,3.41,7.94v2.71A6.15,6.15,0,0,1,1.3,15.28l-.07.05a1.6,1.6,0,0,0-.17,2.26,1.56,1.56,0,0,0,1.21.56h4.2a3.43,3.43,0,0,0,6.69,0h4.2a1.6,1.6,0,0,0,1.6-1.6,1.56,1.56,0,0,0-.56-1.21Z"/><circle class="cls-2" cx="15.75" cy="4.31" r="3.5"/></g></svg>