<?xml version="1.0" encoding="UTF-8"?>
<!DOCTYPE svg PUBLIC "-//W3C//DTD SVG 1.1//EN" "http://www.w3.org/Graphics/SVG/1.1/DTD/svg11.dtd">
<svg version="1.2" width="4.76mm" height="4.76mm" viewBox="0 0 476 476" preserveAspectRatio="xMidYMid" fill-rule="evenodd" stroke-width="28.222" stroke-linejoin="round" xmlns="http://www.w3.org/2000/svg" xmlns:ooo="http://xml.openoffice.org/svg/export" xmlns:xlink="http://www.w3.org/1999/xlink" xmlns:presentation="http://sun.com/xmlns/staroffice/presentation" xmlns:smil="http://www.w3.org/2001/SMIL20/" xmlns:anim="urn:oasis:names:tc:opendocument:xmlns:animation:1.0" xml:space="preserve">
 <defs class="ClipPathGroup">
  <clipPath id="presentation_clip_path" clipPathUnits="userSpaceOnUse">
   <rect x="0" y="0" width="476" height="476"/>
  </clipPath>
  <clipPath id="presentation_clip_path_shrink" clipPathUnits="userSpaceOnUse">
   <rect x="0" y="0" width="476" height="476"/>
  </clipPath>
 </defs>
 <defs class="TextShapeIndex">
  <g ooo:slide="id1" ooo:id-list="id3"/>
 </defs>
 <defs class="EmbeddedBulletChars">
  <g id="bullet-char-template-57356" transform="scale(0.00048828125,-0.00048828125)">
   <path d="M 580,1141 L 1163,571 580,0 -4,571 580,1141 Z"/>
  </g>
  <g id="bullet-char-template-57354" transform="scale(0.00048828125,-0.00048828125)">
   <path d="M 8,1128 L 1137,1128 1137,0 8,0 8,1128 Z"/>
  </g>
  <g id="bullet-char-template-10146" transform="scale(0.00048828125,-0.00048828125)">
   <path d="M 174,0 L 602,739 174,1481 1456,739 174,0 Z M 1358,739 L 309,1346 659,739 1358,739 Z"/>
  </g>
  <g id="bullet-char-template-10132" transform="scale(0.00048828125,-0.00048828125)">
   <path d="M 2015,739 L 1276,0 717,0 1260,543 174,543 174,936 1260,936 717,1481 1274,1481 2015,739 Z"/>
  </g>
  <g id="bullet-char-template-10007" transform="scale(0.00048828125,-0.00048828125)">
   <path d="M 0,-2 C -7,14 -16,27 -25,37 L 356,567 C 262,823 215,952 215,954 215,979 228,992 255,992 264,992 276,990 289,987 310,991 331,999 354,1012 L 381,999 492,748 772,1049 836,1024 860,1049 C 881,1039 901,1025 922,1006 886,937 835,863 770,784 769,783 710,716 594,584 L 774,223 C 774,196 753,168 711,139 L 727,119 C 717,90 699,76 672,76 641,76 570,178 457,381 L 164,-76 C 142,-110 111,-127 72,-127 30,-127 9,-110 8,-76 1,-67 -2,-52 -2,-32 -2,-23 -1,-13 0,-2 Z"/>
  </g>
  <g id="bullet-char-template-10004" transform="scale(0.00048828125,-0.00048828125)">
   <path d="M 285,-33 C 182,-33 111,30 74,156 52,228 41,333 41,471 41,549 55,616 82,672 116,743 169,778 240,778 293,778 328,747 346,684 L 369,508 C 377,444 397,411 428,410 L 1163,1116 C 1174,1127 1196,1133 1229,1133 1271,1133 1292,1118 1292,1087 L 1292,965 C 1292,929 1282,901 1262,881 L 442,47 C 390,-6 338,-33 285,-33 Z"/>
  </g>
  <g id="bullet-char-template-9679" transform="scale(0.00048828125,-0.00048828125)">
   <path d="M 813,0 C 632,0 489,54 383,161 276,268 223,411 223,592 223,773 276,916 383,1023 489,1130 632,1184 813,1184 992,1184 1136,1130 1245,1023 1353,916 1407,772 1407,592 1407,412 1353,268 1245,161 1136,54 992,0 813,0 Z"/>
  </g>
  <g id="bullet-char-template-8226" transform="scale(0.00048828125,-0.00048828125)">
   <path d="M 346,457 C 273,457 209,483 155,535 101,586 74,649 74,723 74,796 101,859 155,911 209,963 273,989 346,989 419,989 480,963 531,910 582,859 608,796 608,723 608,648 583,586 532,535 482,483 420,457 346,457 Z"/>
  </g>
  <g id="bullet-char-template-8211" transform="scale(0.00048828125,-0.00048828125)">
   <path d="M -4,459 L 1135,459 1135,606 -4,606 -4,459 Z"/>
  </g>
  <g id="bullet-char-template-61548" transform="scale(0.00048828125,-0.00048828125)">
   <path d="M 173,740 C 173,903 231,1043 346,1159 462,1274 601,1332 765,1332 928,1332 1067,1274 1183,1159 1299,1043 1357,903 1357,740 1357,577 1299,437 1183,322 1067,206 928,148 765,148 601,148 462,206 346,322 231,437 173,577 173,740 Z"/>
  </g>
 </defs>
 <defs class="TextEmbeddedBitmaps"/>
 <g>
  <g id="id2" class="Master_Slide">
   <g id="bg-id2" class="Background"/>
   <g id="bo-id2" class="BackgroundObjects"/>
  </g>
 </g>
 <g class="SlideGroup">
  <g>
   <g id="container-id1">
    <g id="id1" class="Slide" clip-path="url(#presentation_clip_path)">
     <g class="Page">
      <g class="com.sun.star.drawing.ClosedBezierShape">
       <g id="id3">
        <rect class="BoundingBox" stroke="none" fill="none" x="19" y="19" width="439" height="439"/>
        <path fill="rgb(0,0,0)" stroke="none" d="M 446,188 L 413,181 C 410,172 406,163 402,154 L 421,126 C 421,125 421,125 421,125 422,123 423,121 423,118 423,116 421,115 421,112 420,111 420,111 419,110 L 366,57 C 365,56 365,55 363,55 361,54 360,53 357,53 355,53 352,54 351,55 L 350,55 321,73 C 312,70 304,66 295,63 L 288,30 C 287,28 287,27 286,26 285,24 283,22 281,21 280,20 278,19 277,19 L 199,19 C 197,19 196,20 194,21 192,22 191,24 190,26 189,27 189,28 188,30 L 181,63 C 172,66 163,70 154,73 L 126,55 C 125,55 125,55 125,55 123,54 121,53 118,53 116,53 115,54 112,55 111,55 111,56 110,57 L 57,110 C 56,111 55,111 55,112 54,115 53,116 53,118 53,121 54,123 55,125 L 55,126 73,154 C 70,163 66,172 63,181 L 30,188 C 28,189 27,189 26,190 24,191 22,192 21,194 20,196 19,197 19,199 L 19,277 C 19,278 20,280 21,281 22,283 24,285 26,286 27,287 28,287 30,288 L 63,295 C 66,304 70,312 73,321 L 55,350 C 55,351 55,351 55,351 54,352 53,355 53,357 53,360 54,361 55,363 55,365 56,365 57,366 L 110,419 C 111,420 111,420 112,421 115,421 116,423 118,423 121,423 123,422 125,421 L 126,421 154,402 C 163,406 172,410 181,413 L 188,446 C 189,448 189,449 190,450 191,452 192,454 194,455 196,456 197,456 199,457 L 277,457 C 278,456 280,456 281,455 283,454 285,452 286,450 287,449 287,448 288,446 L 295,413 C 304,410 312,406 321,402 L 350,421 C 351,421 351,421 351,421 352,422 355,423 357,423 360,423 361,422 363,421 365,420 365,420 366,419 L 419,366 C 420,365 420,364 421,363 421,361 423,360 423,357 423,355 422,352 421,351 L 421,350 402,321 C 406,312 410,304 413,295 L 446,287 C 448,287 449,287 450,286 452,285 454,283 455,281 456,280 456,278 457,277 L 457,199 C 456,197 456,196 455,194 454,192 452,191 450,190 449,189 448,189 446,188 Z M 316,238 C 316,252 312,265 306,277 299,290 290,299 277,306 265,312 251,316 237,316 223,316 211,312 198,306 186,299 177,290 170,277 163,265 159,252 159,238 159,224 163,211 170,198 177,186 186,177 198,170 211,163 224,159 237,159 252,159 265,163 277,170 290,177 299,186 306,198 312,211 316,224 316,238 Z"/>
       </g>
      </g>
     </g>
    </g>
   </g>
  </g>
 </g>
</svg>