<svg xmlns="http://www.w3.org/2000/svg" xmlns:xlink="http://www.w3.org/1999/xlink" width="17" height="17" viewBox="0 0 17 17">
    <defs>
        <style>.setting-a{fill:#fff;}.setting-b{clip-path:url(#setting-a);}</style>
        <clipPath id="setting-a">
            <rect class="setting-a" width="17" height="17" transform="translate(17 17)" />
        </clipPath>
    </defs>
    <g class="setting-b" transform="translate(-17 -17)">
        <g transform="translate(17 17)">
            <path class="setting-a" d="M16.6,6.565l-1.311-.283a6.476,6.476,0,0,0-.421-1.012L15.6,4.145a.518.518,0,0,0-.073-.64L13.495,1.473a.518.518,0,0,0-.64-.073l-1.125.729a6.476,6.476,0,0,0-1.012-.421L10.435.4A.51.51,0,0,0,9.941,0H7.059a.51.51,0,0,0-.494.4L6.282,1.708a6.476,6.476,0,0,0-1.012.421L4.145,1.4a.518.518,0,0,0-.64.073L1.473,3.505a.518.518,0,0,0-.073.64L2.129,5.27a6.476,6.476,0,0,0-.421,1.012L.4,6.565a.51.51,0,0,0-.4.494V9.941a.51.51,0,0,0,.4.494l1.311.283a6.476,6.476,0,0,0,.421,1.012L1.4,12.855a.518.518,0,0,0,.073.64l2.032,2.032a.518.518,0,0,0,.64.073l1.125-.729a6.476,6.476,0,0,0,1.012.421L6.565,16.6a.51.51,0,0,0,.494.4H9.941a.51.51,0,0,0,.494-.4l.283-1.311a6.476,6.476,0,0,0,1.012-.421l1.125.729a.518.518,0,0,0,.64-.073l2.032-2.032a.518.518,0,0,0,.073-.64l-.729-1.125a6.476,6.476,0,0,0,.421-1.012l1.311-.283a.51.51,0,0,0,.4-.494V7.059A.51.51,0,0,0,16.6,6.565ZM11.544,8.5A3.044,3.044,0,1,1,8.5,5.456,3.044,3.044,0,0,1,11.544,8.5Z" />
        </g>
    </g>
</svg>